<svg width="2000" height="434" viewBox="0 0 2000 434" fill="none" xmlns="http://www.w3.org/2000/svg">
<g clip-path="url(#clip0_477_55)">
<path d="M355.884 224.53L200.743 336.634L195.121 340.432C186.68 346.135 175.296 340.087 175.296 329.9V12.7329C175.296 2.32988 163.481 -3.66712 155.084 2.47288L5.208 112.062C1.935 114.455 0 118.267 0 122.322V345.473C0 352.493 5.69 358.183 12.71 358.183H363.328C370.348 358.183 376.038 352.493 376.038 345.473V234.832C376.038 224.462 364.289 218.457 355.884 224.53Z" fill="white"/>
<path d="M298.288 163.44C331.719 163.44 358.82 136.339 358.82 102.908C358.82 69.4771 331.719 42.376 298.288 42.376C264.857 42.376 237.756 69.4771 237.756 102.908C237.756 136.339 264.857 163.44 298.288 163.44Z" fill="white"/>
<path d="M717.441 357.956H562.165C559.11 357.956 556.633 355.479 556.633 352.424V119.382C556.633 116.327 559.11 113.85 562.165 113.85H592.947C596.002 113.85 598.479 116.327 598.479 119.382V320.294H717.441C720.496 320.294 722.973 322.771 722.973 325.826V352.424C722.973 355.479 720.496 357.956 717.441 357.956Z" fill="white"/>
<path d="M779.288 350.458C764.991 341.974 754.061 330.177 746.508 315.062C738.951 299.953 735.174 282.865 735.174 263.8C735.174 244.043 739.3 226.895 747.555 212.363C755.804 197.836 767.082 186.732 781.381 179.06C795.678 171.388 811.893 167.553 830.027 167.553C849.322 167.553 866.121 171.737 880.418 180.106C894.715 188.476 905.641 199.929 913.198 214.456C920.751 228.988 924.532 245.437 924.532 263.8C924.532 284.261 920.522 301.985 912.5 316.98C904.48 331.975 893.322 343.428 879.023 351.329C864.726 359.23 848.39 363.186 830.028 363.186C810.499 363.186 793.587 358.941 779.288 350.457V350.458ZM868.562 310.007C877.978 298.035 882.686 282.632 882.686 263.801C882.686 245.439 877.917 230.672 868.387 219.513C858.853 208.354 846.07 202.774 830.028 202.774C813.986 202.774 801.138 208.354 791.494 219.513C781.844 230.672 777.023 245.439 777.023 263.801C777.023 283.564 781.958 299.197 791.843 310.704C801.722 322.212 814.45 327.966 830.028 327.966C846.299 327.966 859.147 321.983 868.562 310.007Z" fill="white"/>
<path d="M992.006 425.26C978.868 419.909 968.64 412.357 961.318 402.593C955.164 394.388 951.596 385.034 950.613 374.533C950.307 371.263 952.841 368.418 956.125 368.418H986.457C989.126 368.418 991.405 370.327 991.881 372.953C993.128 379.826 997.295 385.753 1004.38 390.736C1012.98 396.779 1024.03 399.803 1037.51 399.803C1053.56 399.803 1065.88 395.498 1074.48 386.901C1083.08 378.298 1087.38 366.789 1087.38 352.378V326.224C1081.33 335.291 1073.26 342.385 1063.14 347.496C1053.03 352.612 1041.46 355.168 1028.45 355.168C1012.17 355.168 997.585 351.217 984.681 343.312C971.778 335.411 961.666 324.366 954.342 310.183C947.02 296.005 943.357 279.844 943.357 261.711C943.357 243.578 946.959 227.361 954.168 213.064C961.37 198.766 971.43 187.606 984.331 179.587C997.234 171.566 1011.82 167.556 1028.1 167.556C1042.28 167.556 1055 170.639 1066.28 176.797C1077.56 182.959 1086.1 191.269 1091.91 201.73L1094.81 177.997C1095.15 175.221 1097.5 173.135 1100.3 173.135H1122.65C1125.7 173.135 1128.18 175.612 1128.18 178.667V352.379C1128.18 368.649 1124.52 382.892 1117.19 395.097C1109.87 407.302 1099.41 416.718 1085.81 423.344C1072.21 429.969 1056.11 433.282 1037.51 433.282C1020.3 433.282 1005.14 430.607 992.004 425.262L992.006 425.26ZM1073.09 304.078C1082.61 293.039 1087.38 278.795 1087.38 261.359C1087.38 243.923 1082.67 229.744 1073.26 218.815C1063.84 207.89 1051.58 202.425 1036.47 202.425C1021.36 202.425 1009.15 207.89 999.852 218.815C990.551 229.745 985.902 244.043 985.902 261.708C985.902 279.144 990.61 293.327 1000.03 304.251C1009.44 315.182 1021.59 320.642 1036.47 320.642C1051.35 320.642 1063.55 315.122 1073.09 304.078Z" fill="white"/>
<path d="M1193.56 350.458C1179.27 341.974 1168.34 330.177 1160.78 315.062C1153.23 299.953 1149.45 282.865 1149.45 263.8C1149.45 244.043 1153.58 226.895 1161.83 212.363C1170.08 197.836 1181.36 186.732 1195.66 179.06C1209.95 171.388 1226.17 167.553 1244.3 167.553C1263.6 167.553 1280.4 171.737 1294.69 180.106C1308.99 188.476 1319.92 199.929 1327.47 214.456C1335.03 228.988 1338.81 245.437 1338.81 263.8C1338.81 284.261 1334.8 301.985 1326.78 316.98C1318.76 331.975 1307.6 343.428 1293.3 351.329C1279 359.23 1262.67 363.186 1244.3 363.186C1224.77 363.186 1207.86 358.941 1193.56 350.457V350.458ZM1282.84 310.007C1292.25 298.035 1296.96 282.632 1296.96 263.801C1296.96 245.439 1292.19 230.672 1282.66 219.513C1273.13 208.354 1260.35 202.774 1244.3 202.774C1228.26 202.774 1215.41 208.354 1205.77 219.513C1196.12 230.672 1191.3 245.439 1191.3 263.801C1191.3 283.564 1196.23 299.197 1206.12 310.704C1216 322.212 1228.73 327.966 1244.3 327.966C1260.57 327.966 1273.42 321.983 1282.84 310.007Z" fill="white"/>
<path d="M1360.42 354.817C1355.31 349.706 1352.75 343.31 1352.75 335.638C1352.75 328.201 1355.31 321.923 1360.42 316.807C1365.54 311.696 1371.81 309.135 1379.26 309.135C1386.93 309.135 1393.32 311.696 1398.44 316.807C1403.55 321.924 1406.11 328.201 1406.11 335.638C1406.11 343.31 1403.55 349.706 1398.44 354.817C1393.32 359.928 1386.93 362.489 1379.26 362.489C1371.81 362.489 1365.54 359.928 1360.42 354.817Z" fill="white"/>
<path d="M1461.55 350.633C1448.53 342.263 1438.36 330.581 1431.04 315.586C1423.72 300.591 1420.05 283.563 1420.05 264.498C1420.05 245.667 1423.66 228.928 1430.87 214.282C1438.07 199.636 1448.07 188.188 1460.86 179.933C1473.64 171.683 1488.17 167.553 1504.44 167.553C1517.23 167.553 1528.91 170.054 1539.49 175.05C1550.07 180.052 1558.61 186.966 1565.12 195.799V101.945C1565.12 98.8901 1567.6 96.4131 1570.65 96.4131H1600.74C1603.8 96.4131 1606.27 98.8901 1606.27 101.945V352.423C1606.27 355.478 1603.8 357.955 1600.74 357.955H1578.07C1575.26 357.955 1572.9 355.854 1572.57 353.066L1569.31 325.175C1563.96 337.031 1555.76 346.333 1544.72 353.072C1533.68 359.812 1520.72 363.186 1505.84 363.186C1489.33 363.186 1474.57 359.001 1461.55 350.632V350.633ZM1540.19 320.119C1547.98 314.659 1554.08 307.042 1558.5 297.278C1562.91 287.513 1565.12 276.475 1565.12 264.149C1565.12 245.787 1560.41 230.846 1551 219.338C1541.58 207.831 1529.32 202.077 1514.21 202.077C1498.86 202.077 1486.37 207.891 1476.72 219.513C1467.07 231.142 1462.25 246.251 1462.25 264.847C1462.25 283.443 1467.01 298.673 1476.55 310.53C1486.08 322.386 1498.4 328.316 1513.51 328.316C1523.5 328.316 1532.4 325.585 1540.19 320.121V320.119Z" fill="white"/>
<path d="M1674.27 350.807C1659.85 342.557 1648.64 331.05 1640.62 316.284C1632.6 301.523 1628.59 284.844 1628.59 266.242C1628.59 246.484 1632.6 229.103 1640.62 214.108C1648.64 199.113 1659.62 187.605 1673.57 179.585C1687.52 171.564 1703.09 167.554 1720.3 167.554C1737.74 167.554 1753.02 171.45 1766.16 179.236C1779.29 187.028 1789.58 198.187 1797.02 212.713C1804.46 227.245 1808.29 244.392 1808.53 264.15V268.382C1808.53 271.437 1806.05 273.914 1802.99 273.914H1669.74C1671.13 290.424 1676.65 303.616 1686.3 313.494C1695.94 323.379 1708.56 328.315 1724.14 328.315C1734.82 328.315 1744.01 325.819 1751.68 320.818C1758.36 316.469 1763.28 310.489 1766.43 302.88C1767.31 300.767 1769.35 299.372 1771.64 299.372H1800.59C1804.34 299.372 1806.98 303.03 1805.86 306.613C1800.67 323.18 1791.57 336.4 1778.54 346.275C1763.66 357.554 1745.41 363.188 1723.79 363.188C1705.18 363.188 1688.68 359.057 1674.27 350.808L1674.27 350.807ZM1765.98 244.97C1763.42 231.489 1758.14 221.027 1750.12 213.584C1742.09 206.147 1732.16 202.425 1720.3 202.425C1708.21 202.425 1697.86 206.206 1689.26 213.758C1680.66 221.316 1674.73 231.717 1671.48 244.969H1765.98L1765.98 244.97Z" fill="white"/>
<path d="M1922.01 357.956H1886.49C1884.26 357.956 1882.24 356.614 1881.38 354.553L1808.93 180.794C1807.41 177.15 1810.09 173.133 1814.04 173.133H1846.62C1848.88 173.133 1850.92 174.518 1851.76 176.626L1904.43 309.483L1956.75 176.637C1957.58 174.522 1959.62 173.132 1961.89 173.132H1994.46C1998.41 173.132 2001.09 177.149 1999.57 180.793L1927.12 354.552C1926.26 356.613 1924.24 357.955 1922.01 357.955L1922.01 357.956Z" fill="white"/>
</g>
<defs>
<clipPath id="clip0_477_55">
<rect width="2000" height="433.279" fill="white"/>
</clipPath>
</defs>
</svg>
